<svg width="64" height="66" viewBox="0 0 64 66" fill="none" xmlns="http://www.w3.org/2000/svg">
<path fill-rule="evenodd" clip-rule="evenodd" d="M56.86 21.6062C56.8707 21.6173 56.8853 21.6236 56.9004 21.6236C65.0672 23.8919 64.0475 37.4624 63.8379 39.493C62.3453 39.0654 60.8168 38.7868 59.2733 38.661C58.3775 27.7947 51.5163 25.2193 46.2179 25.2193C41.3578 25.2193 33.3721 29.8451 32.0761 30.6177C32.0241 30.6465 31.9646 30.6571 31.9063 30.6482C31.848 30.6393 31.794 30.6113 31.7521 30.5682C30.8849 29.6866 26.0249 25.2193 16.4287 25.2193C7.26136 25.2193 5.26017 35.6596 4.87899 38.6312C3.3704 38.7529 1.87493 39.0114 0.409668 39.4039L1.19109 23.5056C1.19109 23.4363 1.31497 23.3868 1.31497 23.4363C1.79144 23.8622 3.53534 25.3282 5.00288 25.0212C5.02266 25.0148 5.04087 25.004 5.05626 24.9896C5.07165 24.9752 5.08384 24.9575 5.092 24.9378C5.10015 24.918 5.10408 24.8966 5.1035 24.8751C5.10292 24.8536 5.09785 24.8324 5.08864 24.8131C1.21967 18.0279 2.79204 7.62719 10.0535 0C10.6122 0.584144 11.0642 1.22951 11.5249 1.88744C13.7752 5.10083 16.2352 8.6137 32.3716 6.75552C56.0047 5.83431 63.0088 22.6736 61.608 21.683L56.9004 21.5047C56.8853 21.5047 56.8707 21.511 56.86 21.5221C56.8493 21.5333 56.8433 21.5484 56.8433 21.5642C56.8433 21.5799 56.8493 21.595 56.86 21.6062ZM28.7504 44.9212C31.0268 45.3323 33.3544 45.3323 35.6307 44.9212C44.9887 42.1873 59.0256 42.3656 63.7332 43.9207C63.7332 43.9207 63.5426 45.8622 63.19 48.1008C62.7692 48.0665 62.3517 47.9969 61.9416 47.8928C61.9416 47.8928 61.9226 61.9487 56.3288 64.5241C50.735 67.0995 42.6444 66.0198 39.7856 62.9491C36.8077 59.7794 36.7418 59.558 34.9574 53.5675C34.8403 53.1742 34.7157 52.7561 34.5825 52.3107C34.5825 52.3107 33.7248 48.6952 32.1906 48.6952C30.6563 48.6952 29.7987 52.3107 29.7987 52.3107C27.6633 59.4485 27.5151 59.6177 24.7068 62.8221L24.5956 62.9491C21.813 66.1189 13.6462 67.0995 8.05241 64.5241C2.45861 61.9487 1.73437 47.8928 1.73437 47.8928L0 48.081L0.162001 43.9306C4.67898 42.4448 19.0208 42.0783 28.7504 44.9212ZM10.8731 63.6722C16.4669 65.1085 22.3848 64.2764 24.7767 59.71C27.159 55.1337 27.7117 50.3197 25.9583 48.5367C25.9583 48.5367 24.0715 46.1594 19.059 45.8325C18.744 45.812 18.4192 45.7894 18.0866 45.7663C13.1251 45.4215 6.42771 44.9561 4.93627 49.3192C3.34485 53.9748 5.27933 62.2359 10.8731 63.6722ZM53.5462 63.692C59.14 62.2854 61.0649 53.9748 59.464 49.3192H59.4449C57.9264 44.9128 51.0839 45.3899 46.0897 45.7381C45.8185 45.757 45.5528 45.7755 45.2936 45.7929C40.2621 46.1297 38.4229 48.5367 38.4229 48.5367C36.6694 50.3197 37.2412 55.1832 39.6426 59.7298C42.0441 64.2764 47.9524 65.0986 53.5462 63.692Z" fill="url(#paint0_linear_18_172)"/>
<defs>
<linearGradient id="paint0_linear_18_172" x1="67.7698" y1="8.2495" x2="-14.4105" y2="13.5706" gradientUnits="userSpaceOnUse">
<stop stop-color="#B66AFF"/>
<stop offset="1" stop-color="#465AF1"/>
</linearGradient>
</defs>
</svg>
